<svg xmlns="http://www.w3.org/2000/svg" width="1716" height="343" viewBox="0 0 1716 343"><style>.a{fill:#FFF;}.b{fill:#17232C;}</style><title>  Desktop</title><desc>  Created with Sketch.</desc><g fill="none"><path d="M172.9 333.4C129.4 333.4 88.5 316.5 57.7 285.7 26.9 254.9 10 214 10 170.5 10 127 26.9 86 57.7 55.3 88.5 24.5 129.4 7.6 172.9 7.6 216.4 7.6 257.4 24.5 288.1 55.3 318.9 86 335.8 127 335.8 170.5 335.8 214 318.9 254.9 288.1 285.7 257.4 316.5 216.4 333.4 172.9 333.4" fill="#FF5252"/><path d="M281.4 231L264.8 231C265.4 229.7 265.8 228.3 266.1 226.9 268.5 214.9 271.3 196.8 271.6 177.3L254.1 177.3C252.3 177.3 250.8 175.9 250.8 174.1L250.8 140.6C250.8 138.8 252.3 137.3 254.1 137.3L269.1 137.3C268.3 131.6 267.4 126.6 266.5 122.5 264.7 114.1 257.4 108.1 248.9 108.1L243.8 108.1 243.8 104.1C243.8 100.9 241.2 98.3 237.9 98.3L92.8 98.3C89.5 98.3 86.9 100.9 86.9 104.1L86.9 108.1 83 108.1C74 108.1 66.4 114.7 65.1 123.6 63.4 135.1 61.6 152.6 61.6 174.8 61.6 194.7 63.6 213.4 65.4 225.9 66.7 234.8 74.3 241.4 83.3 241.4L86.3 241.4C86.2 240.6 86.2 239.8 86.2 238.9 86.2 222 99.8 208.3 116.7 208.3 133.5 208.3 147.2 222 147.2 238.9 147.2 239.8 147.1 240.6 147.1 241.4L173.1 241.4 173.1 136.2C173.1 127.2 180.4 119.9 189.3 119.9L216.6 119.9C225.5 119.9 232.9 127.2 232.9 136.2L232.9 241.4 281.4 241.4C283 241.4 284.2 240.2 284.2 238.6L284.2 233.8C284.2 232.2 283 231 281.4 231ZM152.2 174.2C152.2 176 150.7 177.4 148.9 177.4L90.9 177.4C89.1 177.4 87.6 176 87.6 174.2L87.6 140.7C87.6 138.9 89.1 137.4 90.9 137.4L148.9 137.4C150.7 137.4 152.2 138.9 152.2 140.7L152.2 174.2Z" class="a"/><path d="M216.6 126.4L189.3 126.4C184 126.4 179.6 130.8 179.6 136.2L179.6 241.4 226.4 241.4 226.4 136.2C226.4 130.8 222 126.4 216.6 126.4ZM215.3 174.1C215.3 175.9 213.9 177.3 212.1 177.3L193.8 177.3C192 177.3 190.6 175.9 190.6 174.1L190.6 140.6C190.6 138.8 192 137.3 193.8 137.3L212.1 137.3C213.9 137.3 215.3 138.8 215.3 140.6L215.3 174.1Z" class="a"/><path d="M116.6 214.8C103.4 214.8 92.7 225.6 92.7 238.9 92.7 239.8 92.7 240.6 92.8 241.4 94.1 253.5 104.3 263 116.6 263 129.1 263 139.2 253.5 140.5 241.4 140.6 240.6 140.6 239.8 140.6 238.9 140.6 225.6 129.9 214.8 116.6 214.8M116.6 249.7C111.6 249.7 107.3 246.2 106.2 241.4 106 240.6 105.9 239.8 105.9 238.9 105.9 232.9 110.7 228.1 116.6 228.1 122.6 228.1 127.4 232.9 127.4 238.9 127.4 239.8 127.3 240.6 127.1 241.4 126 246.2 121.7 249.7 116.6 249.7" class="a"/><path d="M724.2 98.1L683.4 98.1 732.7 244.4 770 244.4 819.4 98.1 778.6 98.1 751.4 196.7 724.2 98.1ZM577.5 138.1C582.7 130.6 590.1 126.9 599.7 126.9 609.3 126.9 616.8 130.7 622.1 138.2 627.5 145.6 630.1 156.2 630.1 169.8 630.1 185.8 627.5 197.5 622.1 204.7 616.8 212 609.4 215.6 600 215.6 590.2 215.6 582.7 211.9 577.5 204.6 572.3 197.2 569.7 186.6 569.7 172.7 569.7 157.1 572.3 145.5 577.5 138.1ZM530.6 171.7C530.6 194.9 536.9 213.3 549.5 226.9 562 240.4 578.9 247.1 600 247.1 621.1 247.1 637.9 240.4 650.4 226.8 662.9 213.2 669.2 195.2 669.2 172.8L668.9 162.7C667.5 142 660.5 125.6 648 113.5 635.6 101.4 619.4 95.4 599.7 95.4 585.8 95.4 573.6 98.5 563.1 104.7 552.6 111 544.6 119.7 539 131.1 533.4 142.5 530.6 155.4 530.6 169.9L530.6 171.7ZM515.1 97.2C511.3 96 507.2 95.4 502.9 95.4 489 95.4 478.2 102.1 470.3 115.6L469.2 98.1 432.3 98.1 432.3 244.4 471.4 244.4 471.4 148.7C476 138.7 485.7 133.7 500.5 133.7 504.5 133.7 509.2 134 514.6 134.8L515.1 97.2Z" class="b"/><path d="M1657 215.2C1653.1 218 1647.5 219.4 1640 219.4 1632 219.4 1625.5 217.6 1620.8 213.9 1616 210.2 1613.4 204.9 1613.1 197.9L1576 197.9C1576 206.7 1578.7 215 1584.1 222.6 1589.5 230.2 1597 236.2 1606.5 240.6 1616 245 1626.9 247.1 1639.2 247.1 1657.3 247.1 1672.1 243 1683.5 234.8 1695 226.5 1700.7 215.7 1700.7 202.4 1700.7 183.7 1690.4 170.6 1669.7 163 1663.1 160.6 1654.9 158.4 1645.1 156.5 1635.4 154.5 1628.5 152.2 1624.4 149.6 1620.3 146.9 1618.2 143.4 1618.2 139.1 1618.2 134.5 1620 130.7 1623.6 127.7 1627.2 124.7 1632.3 123.3 1638.9 123.3 1646.6 123.3 1652.2 125.1 1655.8 128.7 1659.4 132.4 1661.2 137 1661.2 142.6L1700.3 142.6C1700.3 128.6 1694.7 117.3 1683.6 108.5 1672.5 99.8 1657.6 95.4 1639 95.4 1621.6 95.4 1607.5 99.7 1596.8 108.5 1586 117.2 1580.6 128 1580.6 141 1580.6 163.2 1598 178 1632.8 185.3 1643.3 187.5 1650.9 190 1655.6 192.7 1660.3 195.5 1662.7 199.2 1662.7 204 1662.7 208.6 1660.8 212.3 1657 215.2ZM1506.5 215.2C1502.7 218 1497 219.4 1489.5 219.4 1481.5 219.4 1475.1 217.6 1470.3 213.9 1465.5 210.2 1463 204.9 1462.6 197.9L1425.6 197.9C1425.6 206.7 1428.3 215 1433.7 222.6 1439.1 230.2 1446.6 236.2 1456.1 240.6 1465.6 245 1476.5 247.1 1488.7 247.1 1506.8 247.1 1521.6 243 1533.1 234.8 1544.5 226.5 1550.3 215.7 1550.3 202.4 1550.3 183.7 1539.9 170.6 1519.3 163 1512.6 160.6 1504.4 158.4 1494.7 156.5 1484.9 154.5 1478 152.2 1473.9 149.6 1469.8 146.9 1467.8 143.4 1467.8 139.1 1467.8 134.5 1469.6 130.7 1473.2 127.7 1476.8 124.7 1481.9 123.3 1488.5 123.3 1496.1 123.3 1501.8 125.1 1505.4 128.7 1509 132.4 1510.8 137 1510.8 142.6L1549.9 142.6C1549.9 128.6 1544.3 117.3 1533.2 108.5 1522 99.8 1507.2 95.4 1488.6 95.4 1471.2 95.4 1457.1 99.7 1446.3 108.5 1435.6 117.2 1430.2 128 1430.2 141 1430.2 163.2 1447.6 178 1482.4 185.3 1492.8 187.5 1500.4 190 1505.2 192.7 1509.9 195.5 1512.3 199.2 1512.3 204 1512.3 208.6 1510.3 212.3 1506.5 215.2ZM1314.9 212.5C1311.5 209.4 1309.8 205.3 1309.8 200.5L1309.9 198.2C1311.1 184.7 1321.6 177.9 1341.1 177.9L1355.7 177.9 1355.7 203.1C1353.4 207.4 1349.8 210.8 1344.9 213.4 1340 216 1334.7 217.3 1329 217.3 1323 217.3 1318.3 215.7 1314.9 212.5ZM1400.8 244.4L1400.8 242.1C1397 235 1395 224.5 1394.9 210.6L1394.9 147.2C1394.9 130.8 1389.7 118.1 1379.1 109 1368.5 99.9 1354.2 95.4 1336.1 95.4 1324.2 95.4 1313.5 97.5 1303.9 101.6 1294.4 105.7 1287 111.3 1281.8 118.5 1276.5 125.7 1273.9 133.6 1273.9 142.1L1313 142.1C1313 136.6 1314.9 132.2 1318.6 129.1 1322.3 125.9 1327.5 124.3 1334.1 124.3 1341.6 124.3 1347.1 126.4 1350.5 130.4 1354 134.5 1355.7 139.9 1355.7 146.7L1355.7 155 1337.7 155C1316 155.1 1299.4 159.3 1287.9 167.6 1276.4 175.9 1270.7 187.8 1270.7 203.3 1270.7 215.9 1275.4 226.4 1284.8 234.7 1294.2 243 1306.1 247.1 1320.4 247.1 1335.6 247.1 1347.9 241.9 1357.4 231.3 1358.2 236.5 1359.5 240.9 1361.3 244.4L1400.8 244.4ZM1177.2 215.6C1164.9 215.6 1156.4 210.8 1151.6 201.2L1151.6 141.2C1156.2 131.9 1164.6 127.2 1176.9 127.2 1186.1 127.2 1193.1 130.9 1197.9 138.3 1202.7 145.7 1205.2 156.2 1205.2 169.8 1205.2 200.3 1195.8 215.6 1177.2 215.6ZM1244.2 170.6C1244.2 147.2 1239.2 128.8 1229.2 115.4 1219.2 102.1 1205.2 95.4 1187.2 95.4 1171.9 95.4 1159.6 101.1 1150.1 112.4L1148.8 98.1 1112.5 98.1 1112.5 300.7 1151.6 300.7 1151.6 231.7C1160.7 242 1172.7 247.1 1187.4 247.1 1204.8 247.1 1218.7 240.4 1228.9 226.8 1239.1 213.2 1244.2 195.2 1244.2 172.6L1244.2 170.6ZM1086.2 97.2C1082.4 96 1078.4 95.4 1074.1 95.4 1060.2 95.4 1049.3 102.1 1041.5 115.6L1040.4 98.1 1003.5 98.1 1003.5 244.4 1042.5 244.4 1042.5 148.7C1047.1 138.7 1056.8 133.7 1071.6 133.7 1075.7 133.7 1080.4 134 1085.7 134.8L1086.2 97.2ZM927.8 134C932.3 138.8 934.7 145.5 934.8 154.2L934.8 157.3 880.5 157.3C881.8 147.6 884.9 140 889.7 134.8 894.6 129.5 900.8 126.9 908.6 126.9 916.9 126.9 923.3 129.3 927.8 134ZM946.3 240.2C956.3 235.5 964.3 229.1 970.1 220.8L950.9 199.3C942.5 210.2 930.7 215.6 915.6 215.6 905.9 215.6 897.8 212.7 891.5 207 885.1 201.2 881.3 193.5 880.1 184L973.2 184 973.2 168C973.2 144.9 967.5 127 956 114.3 944.5 101.7 928.8 95.4 908.7 95.4 895.4 95.4 883.5 98.5 873.1 104.8 862.7 111.1 854.6 120 849 131.6 843.3 143.2 840.4 156.3 840.4 171L840.4 174.8C840.4 196.7 847.2 214.2 860.7 227.4 874.1 240.6 891.6 247.1 913.1 247.1 925.2 247.1 936.3 244.8 946.3 240.2Z" class="b"/></g></svg>
